# xmcd
#
# Track frame offsets: 
#        150
#        21363
#        40721
#        62405
#        97199
#        118105
#        142494
#        158630
#        173380
#        184975
#        207893
#        225127
#        242268
#
# Disc length: 3525 seconds
#
# Revision: 1
# Processed by: cddbd v1.5.2PL0 Copyright (c) Steve Scherf et al.
# Submitted via: ExactAudioCopy v0.99pb4
#
DISCID=a40dc30d
DTITLE=Ali Farka Toure - Savane
DYEAR=2006
DGENRE=Blues
TTITLE0=Erdi
TTITLE1=Yer Bounda Fara
TTITLE2=Beto
TTITLE3=Savane
TTITLE4=Soya
TTITLE5=Penda Yoro
TTITLE6=Machengoidi
TTITLE7=Ledi Coumbe
TTITLE8=Hanana
TTITLE9=Soko Yhinka
TTITLE10=Gambari Didi
TTITLE11=Banga
TTITLE12=N'Jarou
EXTD=YEAR: 2006
EXTT0=
EXTT1=
EXTT2=
EXTT3=
EXTT4=
EXTT5=
EXTT6=
EXTT7=
EXTT8=
EXTT9=
EXTT10=
EXTT11=
EXTT12=
PLAYORDER=
